<?xml version="1.0" standalone="no"?>
<!DOCTYPE svg PUBLIC "-//W3C//DTD SVG 20010904//EN"
 "http://www.w3.org/TR/2001/REC-SVG-20010904/DTD/svg10.dtd">
<svg version="1.0" xmlns="http://www.w3.org/2000/svg"
 width="1280.000000pt" height="1280.000000pt" viewBox="0 0 1280.000000 1280.000000"
 preserveAspectRatio="xMidYMid meet">

<g transform="translate(0.000000,1280.000000) scale(0.100000,-0.100000)"
fill="#ffffff" stroke="none">
<path d="M6110 12794 c-450 -30 -707 -63 -1045 -135 -1996 -421 -3690 -1798
-4520 -3674 -291 -657 -460 -1329 -527 -2095 -16 -189 -16 -791 0 -980 100
-1144 449 -2148 1065 -3070 369 -552 845 -1063 1377 -1481 1385 -1087 3167
-1552 4920 -1283 1195 183 2310 703 3235 1508 142 124 448 429 578 576 916
1040 1452 2287 1584 3685 21 226 24 839 5 1055 -77 865 -287 1620 -653 2352
-838 1674 -2358 2900 -4159 3353 -343 87 -632 136 -1005 170 -150 15 -734 27
-855 19z m-3042 -3151 l23 -9 -1 -647 0 -647 120 0 120 0 0 583 1 582 59 -62
c168 -177 280 -432 326 -747 22 -147 14 -437 -15 -576 -73 -348 -220 -607
-426 -752 l-70 -49 -5 -1997 -5 -1997 -27 -47 c-92 -156 -293 -184 -418 -58
-87 86 -80 -110 -80 2120 l0 1977 -52 35 c-219 147 -375 415 -450 773 -19 95
-23 140 -23 330 0 247 15 347 81 544 58 175 175 374 273 465 l31 30 0 -577 0
-577 115 0 115 0 2 647 3 648 50 12 c53 13 214 11 253 -4z m6920 2 c335 -79
603 -480 662 -990 62 -544 -136 -1086 -477 -1310 l-43 -28 0 -1977 c0 -2230 7
-2034 -80 -2121 -128 -128 -336 -95 -423 66 l-22 40 -5 1997 -5 1996 -62 41
c-205 137 -377 442 -439 776 -26 140 -27 509 -1 640 82 414 295 734 560 842
110 45 223 54 335 28z m-3200 -739 c889 -134 1630 -673 2021 -1471 196 -398
282 -800 268 -1250 -13 -408 -97 -742 -279 -1106 -134 -268 -283 -474 -498
-690 -423 -425 -950 -685 -1550 -765 -151 -20 -492 -23 -630 -5 -616 79 -1154
339 -1579 761 -668 664 -936 1631 -706 2540 91 362 270 718 510 1020 104 129
326 345 460 446 398 299 811 465 1314 529 138 18 526 12 669 -9z"/>
</g>
</svg>
